<mxfile host="app.diagrams.net" modified="2024-04-26T15:32:22.608Z" agent="Mozilla/5.0 (Windows NT 10.0; Win64; x64) AppleWebKit/537.36 (KHTML, like Gecko) Chrome/121.0.0.0 Safari/537.36 OPR/107.0.0.0" etag="EpEyfAhI_i26AvPcvv9p" version="24.3.0" type="device">
  <diagram name="Page-1" id="0783ab3e-0a74-02c8-0abd-f7b4e66b4bec">
    <mxGraphModel dx="1639" dy="901" grid="1" gridSize="10" guides="1" tooltips="1" connect="1" arrows="1" fold="1" page="1" pageScale="1" pageWidth="850" pageHeight="1100" background="none" math="0" shadow="0">
      <root>
        <mxCell id="0" />
        <mxCell id="1" parent="0" />
        <mxCell id="1c1d494c118603dd-1" value="Process indexation" style="swimlane;html=1;childLayout=stackLayout;startSize=20;rounded=0;shadow=0;comic=0;labelBackgroundColor=none;strokeWidth=1;fontFamily=Verdana;fontSize=12;align=center;" parent="1" vertex="1">
          <mxGeometry x="40" y="20" width="1250" height="740" as="geometry" />
        </mxCell>
        <mxCell id="1c1d494c118603dd-2" value="Dev" style="swimlane;html=1;startSize=20;" parent="1c1d494c118603dd-1" vertex="1">
          <mxGeometry y="20" width="250" height="720" as="geometry" />
        </mxCell>
        <mxCell id="1c1d494c118603dd-6" value="Télécharger CSV" style="rounded=1;whiteSpace=wrap;html=1;shadow=0;comic=0;labelBackgroundColor=none;strokeWidth=1;fontFamily=Verdana;fontSize=12;align=center;arcSize=50;" parent="1c1d494c118603dd-2" vertex="1">
          <mxGeometry x="75" y="120" width="100" height="30" as="geometry" />
        </mxCell>
        <mxCell id="WaROAqDoOg64HN3f1B4j-7" style="edgeStyle=orthogonalEdgeStyle;rounded=0;orthogonalLoop=1;jettySize=auto;html=1;exitX=0.5;exitY=1;exitDx=0;exitDy=0;entryX=0.5;entryY=0;entryDx=0;entryDy=0;" parent="1c1d494c118603dd-2" source="60571a20871a0731-4" target="1c1d494c118603dd-6" edge="1">
          <mxGeometry relative="1" as="geometry" />
        </mxCell>
        <mxCell id="60571a20871a0731-4" value="" style="ellipse;whiteSpace=wrap;html=1;rounded=0;shadow=0;comic=0;labelBackgroundColor=none;strokeWidth=1;fillColor=#000000;fontFamily=Verdana;fontSize=12;align=center;" parent="1c1d494c118603dd-2" vertex="1">
          <mxGeometry x="105" y="50" width="40" height="40" as="geometry" />
        </mxCell>
        <mxCell id="-CrEhXJEr7VhejRcJQ-R-2" value="" style="endArrow=classic;html=1;rounded=0;entryX=0;entryY=0.5;entryDx=0;entryDy=0;" edge="1" parent="1c1d494c118603dd-2" target="-CrEhXJEr7VhejRcJQ-R-1">
          <mxGeometry width="50" height="50" relative="1" as="geometry">
            <mxPoint x="180" y="135" as="sourcePoint" />
            <mxPoint x="225" y="80" as="targetPoint" />
          </mxGeometry>
        </mxCell>
        <mxCell id="1c1d494c118603dd-3" value="Process main" style="swimlane;html=1;startSize=20;" parent="1c1d494c118603dd-1" vertex="1">
          <mxGeometry x="250" y="20" width="250" height="720" as="geometry" />
        </mxCell>
        <mxCell id="WaROAqDoOg64HN3f1B4j-11" style="edgeStyle=orthogonalEdgeStyle;rounded=0;orthogonalLoop=1;jettySize=auto;html=1;exitX=1;exitY=0.5;exitDx=0;exitDy=0;entryX=1;entryY=0.5;entryDx=0;entryDy=0;" parent="1c1d494c118603dd-3" source="WaROAqDoOg64HN3f1B4j-9" edge="1">
          <mxGeometry relative="1" as="geometry">
            <mxPoint x="190" y="135" as="targetPoint" />
            <Array as="points">
              <mxPoint x="220" y="245" />
              <mxPoint x="220" y="135" />
            </Array>
          </mxGeometry>
        </mxCell>
        <mxCell id="-CrEhXJEr7VhejRcJQ-R-1" value="Le fichier existe ?" style="rhombus;whiteSpace=wrap;html=1;" vertex="1" parent="1c1d494c118603dd-3">
          <mxGeometry x="95" y="96" width="80" height="80" as="geometry" />
        </mxCell>
        <mxCell id="-CrEhXJEr7VhejRcJQ-R-3" value="" style="endArrow=classic;html=1;rounded=0;entryX=0;entryY=0.5;entryDx=0;entryDy=0;" edge="1" parent="1c1d494c118603dd-3" target="WaROAqDoOg64HN3f1B4j-3">
          <mxGeometry width="50" height="50" relative="1" as="geometry">
            <mxPoint x="135" y="176" as="sourcePoint" />
            <mxPoint x="130" y="850" as="targetPoint" />
            <Array as="points">
              <mxPoint x="135" y="200" />
              <mxPoint x="30" y="200" />
              <mxPoint x="30" y="640" />
            </Array>
          </mxGeometry>
        </mxCell>
        <mxCell id="-CrEhXJEr7VhejRcJQ-R-4" value="Non" style="text;html=1;align=center;verticalAlign=middle;whiteSpace=wrap;rounded=0;" vertex="1" parent="1c1d494c118603dd-3">
          <mxGeometry x="155" y="176" width="60" height="30" as="geometry" />
        </mxCell>
        <mxCell id="-CrEhXJEr7VhejRcJQ-R-5" value="Oui" style="text;html=1;align=center;verticalAlign=middle;whiteSpace=wrap;rounded=0;" vertex="1" parent="1c1d494c118603dd-3">
          <mxGeometry x="175" y="90" width="60" height="30" as="geometry" />
        </mxCell>
        <mxCell id="-CrEhXJEr7VhejRcJQ-R-6" value="" style="endArrow=classic;html=1;rounded=0;entryX=0;entryY=0.5;entryDx=0;entryDy=0;" edge="1" parent="1c1d494c118603dd-3" target="-CrEhXJEr7VhejRcJQ-R-7">
          <mxGeometry width="50" height="50" relative="1" as="geometry">
            <mxPoint x="176" y="136" as="sourcePoint" />
            <mxPoint x="316" y="136" as="targetPoint" />
          </mxGeometry>
        </mxCell>
        <mxCell id="-CrEhXJEr7VhejRcJQ-R-28" value="Connexion a PM2" style="rounded=1;whiteSpace=wrap;html=1;shadow=0;comic=0;labelBackgroundColor=none;strokeWidth=1;fontFamily=Verdana;fontSize=12;align=center;arcSize=50;" vertex="1" parent="1c1d494c118603dd-3">
          <mxGeometry x="85" y="264" width="100" height="30" as="geometry" />
        </mxCell>
        <mxCell id="-CrEhXJEr7VhejRcJQ-R-29" value="Connexion a PM2 réussi ?" style="rhombus;whiteSpace=wrap;html=1;" vertex="1" parent="1c1d494c118603dd-3">
          <mxGeometry x="95" y="340" width="80" height="80" as="geometry" />
        </mxCell>
        <mxCell id="-CrEhXJEr7VhejRcJQ-R-30" value="" style="endArrow=classic;html=1;rounded=0;" edge="1" parent="1c1d494c118603dd-3">
          <mxGeometry width="50" height="50" relative="1" as="geometry">
            <mxPoint x="135" y="420" as="sourcePoint" />
            <mxPoint x="135" y="470" as="targetPoint" />
          </mxGeometry>
        </mxCell>
        <mxCell id="-CrEhXJEr7VhejRcJQ-R-31" value="" style="endArrow=classic;html=1;rounded=0;" edge="1" parent="1c1d494c118603dd-3">
          <mxGeometry width="50" height="50" relative="1" as="geometry">
            <mxPoint x="95" y="380" as="sourcePoint" />
            <mxPoint x="30" y="380" as="targetPoint" />
          </mxGeometry>
        </mxCell>
        <mxCell id="-CrEhXJEr7VhejRcJQ-R-32" value="Non" style="text;html=1;align=center;verticalAlign=middle;whiteSpace=wrap;rounded=0;" vertex="1" parent="1c1d494c118603dd-3">
          <mxGeometry x="50" y="330" width="60" height="30" as="geometry" />
        </mxCell>
        <mxCell id="-CrEhXJEr7VhejRcJQ-R-33" value="Oui" style="text;html=1;align=center;verticalAlign=middle;whiteSpace=wrap;rounded=0;" vertex="1" parent="1c1d494c118603dd-3">
          <mxGeometry x="155" y="400" width="60" height="30" as="geometry" />
        </mxCell>
        <mxCell id="-CrEhXJEr7VhejRcJQ-R-35" value="" style="endArrow=classic;html=1;rounded=0;entryX=0.5;entryY=0;entryDx=0;entryDy=0;" edge="1" parent="1c1d494c118603dd-3" target="-CrEhXJEr7VhejRcJQ-R-29">
          <mxGeometry width="50" height="50" relative="1" as="geometry">
            <mxPoint x="135" y="294" as="sourcePoint" />
            <mxPoint x="185" y="244" as="targetPoint" />
          </mxGeometry>
        </mxCell>
        <mxCell id="-CrEhXJEr7VhejRcJQ-R-36" value="Démarrer les workers" style="rounded=1;whiteSpace=wrap;html=1;shadow=0;comic=0;labelBackgroundColor=none;strokeWidth=1;fontFamily=Verdana;fontSize=12;align=center;arcSize=50;" vertex="1" parent="1c1d494c118603dd-3">
          <mxGeometry x="85" y="470" width="100" height="30" as="geometry" />
        </mxCell>
        <mxCell id="1c1d494c118603dd-4" value="Process décomposition csv" style="swimlane;html=1;startSize=20;" parent="1c1d494c118603dd-1" vertex="1">
          <mxGeometry x="500" y="20" width="250" height="720" as="geometry" />
        </mxCell>
        <mxCell id="-CrEhXJEr7VhejRcJQ-R-7" value="Récupérer 50MB du CSV" style="rounded=1;whiteSpace=wrap;html=1;shadow=0;comic=0;labelBackgroundColor=none;strokeWidth=1;fontFamily=Verdana;fontSize=12;align=center;arcSize=50;" vertex="1" parent="1c1d494c118603dd-4">
          <mxGeometry x="75" y="120" width="100" height="30" as="geometry" />
        </mxCell>
        <mxCell id="-CrEhXJEr7VhejRcJQ-R-18" value="Ecrire les 50MB sur le disque" style="rounded=1;whiteSpace=wrap;html=1;shadow=0;comic=0;labelBackgroundColor=none;strokeWidth=1;fontFamily=Verdana;fontSize=12;align=center;arcSize=50;" vertex="1" parent="1c1d494c118603dd-4">
          <mxGeometry x="75" y="180" width="100" height="30" as="geometry" />
        </mxCell>
        <mxCell id="-CrEhXJEr7VhejRcJQ-R-19" value="" style="endArrow=classic;html=1;rounded=0;exitX=0.5;exitY=1;exitDx=0;exitDy=0;entryX=0.5;entryY=0;entryDx=0;entryDy=0;" edge="1" parent="1c1d494c118603dd-4" source="-CrEhXJEr7VhejRcJQ-R-7" target="-CrEhXJEr7VhejRcJQ-R-18">
          <mxGeometry width="50" height="50" relative="1" as="geometry">
            <mxPoint x="100" y="370" as="sourcePoint" />
            <mxPoint x="150" y="320" as="targetPoint" />
          </mxGeometry>
        </mxCell>
        <mxCell id="-CrEhXJEr7VhejRcJQ-R-20" value="Est-ce la fin du CSV ?" style="rhombus;whiteSpace=wrap;html=1;" vertex="1" parent="1c1d494c118603dd-4">
          <mxGeometry x="85" y="240" width="80" height="80" as="geometry" />
        </mxCell>
        <mxCell id="-CrEhXJEr7VhejRcJQ-R-23" value="" style="endArrow=classic;html=1;rounded=0;exitX=0.5;exitY=1;exitDx=0;exitDy=0;entryX=0.5;entryY=0;entryDx=0;entryDy=0;" edge="1" parent="1c1d494c118603dd-4" source="-CrEhXJEr7VhejRcJQ-R-18" target="-CrEhXJEr7VhejRcJQ-R-20">
          <mxGeometry width="50" height="50" relative="1" as="geometry">
            <mxPoint x="200" y="480" as="sourcePoint" />
            <mxPoint x="250" y="430" as="targetPoint" />
          </mxGeometry>
        </mxCell>
        <mxCell id="-CrEhXJEr7VhejRcJQ-R-24" value="" style="endArrow=classic;html=1;rounded=0;entryX=1;entryY=0.5;entryDx=0;entryDy=0;" edge="1" parent="1c1d494c118603dd-4" target="-CrEhXJEr7VhejRcJQ-R-7">
          <mxGeometry width="50" height="50" relative="1" as="geometry">
            <mxPoint x="165" y="281" as="sourcePoint" />
            <mxPoint x="175" y="128.5" as="targetPoint" />
            <Array as="points">
              <mxPoint x="220" y="281" />
              <mxPoint x="220" y="135" />
            </Array>
          </mxGeometry>
        </mxCell>
        <mxCell id="-CrEhXJEr7VhejRcJQ-R-25" value="Non" style="text;html=1;align=center;verticalAlign=middle;whiteSpace=wrap;rounded=0;" vertex="1" parent="1c1d494c118603dd-4">
          <mxGeometry x="150" y="240" width="60" height="30" as="geometry" />
        </mxCell>
        <mxCell id="-CrEhXJEr7VhejRcJQ-R-26" value="Oui" style="text;html=1;align=center;verticalAlign=middle;whiteSpace=wrap;rounded=0;" vertex="1" parent="1c1d494c118603dd-4">
          <mxGeometry x="50" y="320" width="60" height="30" as="geometry" />
        </mxCell>
        <mxCell id="WaROAqDoOg64HN3f1B4j-2" value="Process Workers" style="swimlane;html=1;startSize=20;" parent="1c1d494c118603dd-1" vertex="1">
          <mxGeometry x="750" y="20" width="250" height="720" as="geometry" />
        </mxCell>
        <mxCell id="-CrEhXJEr7VhejRcJQ-R-39" value="Récupérer le fichier" style="rounded=1;whiteSpace=wrap;html=1;shadow=0;comic=0;labelBackgroundColor=none;strokeWidth=1;fontFamily=Verdana;fontSize=12;align=center;arcSize=50;" vertex="1" parent="WaROAqDoOg64HN3f1B4j-2">
          <mxGeometry x="75" y="150" width="100" height="30" as="geometry" />
        </mxCell>
        <mxCell id="-CrEhXJEr7VhejRcJQ-R-40" value="Il y a t il un fichier a insérer ?" style="rhombus;whiteSpace=wrap;html=1;" vertex="1" parent="WaROAqDoOg64HN3f1B4j-2">
          <mxGeometry x="85" y="50" width="80" height="80" as="geometry" />
        </mxCell>
        <mxCell id="-CrEhXJEr7VhejRcJQ-R-42" value="" style="endArrow=classic;html=1;rounded=0;entryX=1;entryY=0.5;entryDx=0;entryDy=0;" edge="1" parent="WaROAqDoOg64HN3f1B4j-2" target="WaROAqDoOg64HN3f1B4j-3">
          <mxGeometry width="50" height="50" relative="1" as="geometry">
            <mxPoint x="165" y="90" as="sourcePoint" />
            <mxPoint x="-370" y="640" as="targetPoint" />
            <Array as="points">
              <mxPoint x="220" y="90" />
              <mxPoint x="220" y="640" />
              <mxPoint x="-340" y="640" />
            </Array>
          </mxGeometry>
        </mxCell>
        <mxCell id="-CrEhXJEr7VhejRcJQ-R-43" value="" style="endArrow=classic;html=1;rounded=0;entryX=0.5;entryY=0;entryDx=0;entryDy=0;" edge="1" parent="WaROAqDoOg64HN3f1B4j-2" target="-CrEhXJEr7VhejRcJQ-R-39">
          <mxGeometry width="50" height="50" relative="1" as="geometry">
            <mxPoint x="125" y="130" as="sourcePoint" />
            <mxPoint x="175" y="80" as="targetPoint" />
          </mxGeometry>
        </mxCell>
        <mxCell id="-CrEhXJEr7VhejRcJQ-R-45" value="Il y a t il d autres lignes?" style="rhombus;whiteSpace=wrap;html=1;" vertex="1" parent="WaROAqDoOg64HN3f1B4j-2">
          <mxGeometry x="85" y="380" width="80" height="80" as="geometry" />
        </mxCell>
        <mxCell id="-CrEhXJEr7VhejRcJQ-R-46" value="" style="endArrow=classic;html=1;rounded=0;entryX=1;entryY=0.5;entryDx=0;entryDy=0;exitX=1;exitY=0.5;exitDx=0;exitDy=0;" edge="1" parent="WaROAqDoOg64HN3f1B4j-2" source="-CrEhXJEr7VhejRcJQ-R-45" target="-CrEhXJEr7VhejRcJQ-R-44">
          <mxGeometry width="50" height="50" relative="1" as="geometry">
            <mxPoint x="165" y="380" as="sourcePoint" />
            <mxPoint x="200" y="180" as="targetPoint" />
            <Array as="points">
              <mxPoint x="200" y="420" />
              <mxPoint x="200" y="315" />
            </Array>
          </mxGeometry>
        </mxCell>
        <mxCell id="-CrEhXJEr7VhejRcJQ-R-47" value="" style="endArrow=classic;html=1;rounded=0;entryX=0.5;entryY=0;entryDx=0;entryDy=0;" edge="1" parent="WaROAqDoOg64HN3f1B4j-2" target="-CrEhXJEr7VhejRcJQ-R-44">
          <mxGeometry width="50" height="50" relative="1" as="geometry">
            <mxPoint x="125" y="240" as="sourcePoint" />
            <mxPoint x="175" y="140" as="targetPoint" />
          </mxGeometry>
        </mxCell>
        <mxCell id="-CrEhXJEr7VhejRcJQ-R-48" value="" style="endArrow=classic;html=1;rounded=0;entryX=0.5;entryY=0;entryDx=0;entryDy=0;" edge="1" parent="WaROAqDoOg64HN3f1B4j-2" source="-CrEhXJEr7VhejRcJQ-R-44" target="-CrEhXJEr7VhejRcJQ-R-45">
          <mxGeometry width="50" height="50" relative="1" as="geometry">
            <mxPoint x="125" y="320" as="sourcePoint" />
            <mxPoint x="180" y="250" as="targetPoint" />
          </mxGeometry>
        </mxCell>
        <mxCell id="-CrEhXJEr7VhejRcJQ-R-49" value="Oui" style="text;html=1;align=center;verticalAlign=middle;whiteSpace=wrap;rounded=0;" vertex="1" parent="WaROAqDoOg64HN3f1B4j-2">
          <mxGeometry x="140" y="380" width="60" height="30" as="geometry" />
        </mxCell>
        <mxCell id="-CrEhXJEr7VhejRcJQ-R-50" value="Non" style="text;html=1;align=center;verticalAlign=middle;whiteSpace=wrap;rounded=0;" vertex="1" parent="WaROAqDoOg64HN3f1B4j-2">
          <mxGeometry x="60" y="440" width="60" height="30" as="geometry" />
        </mxCell>
        <mxCell id="-CrEhXJEr7VhejRcJQ-R-54" value="Déconnexion de MongoDB&amp;nbsp;" style="rounded=1;whiteSpace=wrap;html=1;shadow=0;comic=0;labelBackgroundColor=none;strokeWidth=1;fontFamily=Verdana;fontSize=12;align=center;arcSize=50;" vertex="1" parent="WaROAqDoOg64HN3f1B4j-2">
          <mxGeometry x="75" y="550" width="100" height="30" as="geometry" />
        </mxCell>
        <mxCell id="-CrEhXJEr7VhejRcJQ-R-55" value="" style="endArrow=classic;html=1;rounded=0;exitX=0;exitY=0.5;exitDx=0;exitDy=0;" edge="1" parent="WaROAqDoOg64HN3f1B4j-2" source="-CrEhXJEr7VhejRcJQ-R-54">
          <mxGeometry width="50" height="50" relative="1" as="geometry">
            <mxPoint x="125" y="525" as="sourcePoint" />
            <mxPoint x="40" y="480" as="targetPoint" />
            <Array as="points">
              <mxPoint x="40" y="565" />
              <mxPoint x="40" y="510" />
            </Array>
          </mxGeometry>
        </mxCell>
        <mxCell id="-CrEhXJEr7VhejRcJQ-R-44" value="Convertir la ligne du fichier en objet MongoDB" style="rounded=1;whiteSpace=wrap;html=1;shadow=0;comic=0;labelBackgroundColor=none;strokeWidth=1;fontFamily=Verdana;fontSize=12;align=center;arcSize=50;" vertex="1" parent="WaROAqDoOg64HN3f1B4j-2">
          <mxGeometry x="75" y="280" width="100" height="70" as="geometry" />
        </mxCell>
        <mxCell id="-CrEhXJEr7VhejRcJQ-R-59" value="" style="edgeStyle=orthogonalEdgeStyle;rounded=0;orthogonalLoop=1;jettySize=auto;html=1;" edge="1" parent="WaROAqDoOg64HN3f1B4j-2" target="-CrEhXJEr7VhejRcJQ-R-44">
          <mxGeometry relative="1" as="geometry">
            <mxPoint x="125" y="250" as="sourcePoint" />
          </mxGeometry>
        </mxCell>
        <mxCell id="-CrEhXJEr7VhejRcJQ-R-58" value="Connexion a MongoDB" style="rounded=1;whiteSpace=wrap;html=1;shadow=0;comic=0;labelBackgroundColor=none;strokeWidth=1;fontFamily=Verdana;fontSize=12;align=center;arcSize=50;" vertex="1" parent="WaROAqDoOg64HN3f1B4j-2">
          <mxGeometry x="75" y="220" width="100" height="30" as="geometry" />
        </mxCell>
        <mxCell id="-CrEhXJEr7VhejRcJQ-R-60" value="" style="endArrow=classic;html=1;rounded=0;entryX=0.5;entryY=0;entryDx=0;entryDy=0;" edge="1" parent="WaROAqDoOg64HN3f1B4j-2" target="-CrEhXJEr7VhejRcJQ-R-58">
          <mxGeometry width="50" height="50" relative="1" as="geometry">
            <mxPoint x="125" y="180" as="sourcePoint" />
            <mxPoint x="175" y="130" as="targetPoint" />
          </mxGeometry>
        </mxCell>
        <mxCell id="-CrEhXJEr7VhejRcJQ-R-61" value="Oui" style="text;html=1;align=center;verticalAlign=middle;whiteSpace=wrap;rounded=0;" vertex="1" parent="WaROAqDoOg64HN3f1B4j-2">
          <mxGeometry x="70" y="110" width="60" height="30" as="geometry" />
        </mxCell>
        <mxCell id="-CrEhXJEr7VhejRcJQ-R-62" value="Non" style="text;html=1;align=center;verticalAlign=middle;whiteSpace=wrap;rounded=0;" vertex="1" parent="WaROAqDoOg64HN3f1B4j-2">
          <mxGeometry x="150" y="50" width="60" height="30" as="geometry" />
        </mxCell>
        <mxCell id="WaROAqDoOg64HN3f1B4j-3" value="" style="ellipse;html=1;shape=endState;fillColor=#000000;strokeColor=#ff0000;" parent="WaROAqDoOg64HN3f1B4j-2" vertex="1">
          <mxGeometry x="-385" y="620" width="40" height="40" as="geometry" />
        </mxCell>
        <mxCell id="WaROAqDoOg64HN3f1B4j-4" value="Mongodb" style="swimlane;html=1;startSize=20;" parent="1c1d494c118603dd-1" vertex="1">
          <mxGeometry x="1000" y="20" width="250" height="720" as="geometry" />
        </mxCell>
        <mxCell id="-CrEhXJEr7VhejRcJQ-R-51" value="Inserer les objets MongoDB" style="rounded=1;whiteSpace=wrap;html=1;shadow=0;comic=0;labelBackgroundColor=none;strokeWidth=1;fontFamily=Verdana;fontSize=12;align=center;arcSize=50;" vertex="1" parent="WaROAqDoOg64HN3f1B4j-4">
          <mxGeometry x="75" y="40" width="100" height="40" as="geometry" />
        </mxCell>
        <mxCell id="-CrEhXJEr7VhejRcJQ-R-53" value="" style="endArrow=classic;html=1;rounded=0;entryX=1;entryY=0.5;entryDx=0;entryDy=0;" edge="1" parent="WaROAqDoOg64HN3f1B4j-4" target="-CrEhXJEr7VhejRcJQ-R-54">
          <mxGeometry width="50" height="50" relative="1" as="geometry">
            <mxPoint x="125" y="80" as="sourcePoint" />
            <mxPoint x="125" y="510" as="targetPoint" />
            <Array as="points">
              <mxPoint x="125" y="565" />
            </Array>
          </mxGeometry>
        </mxCell>
        <mxCell id="-CrEhXJEr7VhejRcJQ-R-27" value="" style="endArrow=classic;html=1;rounded=0;exitX=0;exitY=0.5;exitDx=0;exitDy=0;entryX=1;entryY=0.5;entryDx=0;entryDy=0;" edge="1" parent="1c1d494c118603dd-1" source="-CrEhXJEr7VhejRcJQ-R-20" target="-CrEhXJEr7VhejRcJQ-R-28">
          <mxGeometry width="50" height="50" relative="1" as="geometry">
            <mxPoint x="405" y="310" as="sourcePoint" />
            <mxPoint x="440" y="300" as="targetPoint" />
          </mxGeometry>
        </mxCell>
        <mxCell id="-CrEhXJEr7VhejRcJQ-R-41" value="" style="endArrow=classic;html=1;rounded=0;exitX=1;exitY=0.5;exitDx=0;exitDy=0;entryX=0;entryY=0.5;entryDx=0;entryDy=0;" edge="1" parent="1c1d494c118603dd-1" source="-CrEhXJEr7VhejRcJQ-R-36" target="-CrEhXJEr7VhejRcJQ-R-40">
          <mxGeometry width="50" height="50" relative="1" as="geometry">
            <mxPoint x="380" y="670" as="sourcePoint" />
            <mxPoint x="790" y="100" as="targetPoint" />
            <Array as="points">
              <mxPoint x="790" y="505" />
              <mxPoint x="790" y="110" />
            </Array>
          </mxGeometry>
        </mxCell>
        <mxCell id="-CrEhXJEr7VhejRcJQ-R-52" value="" style="endArrow=classic;html=1;rounded=0;entryX=0;entryY=0.5;entryDx=0;entryDy=0;exitX=0.5;exitY=1;exitDx=0;exitDy=0;" edge="1" parent="1c1d494c118603dd-1" source="-CrEhXJEr7VhejRcJQ-R-45" target="-CrEhXJEr7VhejRcJQ-R-51">
          <mxGeometry width="50" height="50" relative="1" as="geometry">
            <mxPoint x="875" y="440" as="sourcePoint" />
            <mxPoint x="1040" y="470" as="targetPoint" />
            <Array as="points">
              <mxPoint x="875" y="530" />
              <mxPoint x="1030" y="530" />
              <mxPoint x="1030" y="80" />
            </Array>
          </mxGeometry>
        </mxCell>
      </root>
    </mxGraphModel>
  </diagram>
</mxfile>
